<svg width="21" height="21" viewBox="0 0 21 21" fill="none" xmlns="http://www.w3.org/2000/svg">
<g clip-path="url(#clip0_152_203)">
<path d="M19.25 0H11.375V1.75H18.0128L0 19.7628L1.23725 21L19.25 2.98725V9.625H21V1.75C21 1.28587 20.8156 0.840752 20.4874 0.512563C20.1592 0.184374 19.7141 0 19.25 0Z" fill="#01B574"/>
<path d="M5.25 8.75C5.94223 8.75 6.61892 8.54473 7.1945 8.16015C7.77007 7.77556 8.21867 7.22894 8.48358 6.58939C8.74849 5.94985 8.8178 5.24612 8.68275 4.56719C8.5477 3.88825 8.21436 3.26461 7.72487 2.77513C7.23539 2.28564 6.61175 1.9523 5.93282 1.81725C5.25388 1.6822 4.55015 1.75152 3.91061 2.01642C3.27107 2.28133 2.72444 2.72993 2.33986 3.30551C1.95527 3.88108 1.75 4.55777 1.75 5.25C1.75 6.17826 2.11875 7.0685 2.77513 7.72488C3.4315 8.38125 4.32174 8.75 5.25 8.75ZM5.25 3.5C5.59612 3.5 5.93446 3.60264 6.22225 3.79493C6.51003 3.98722 6.73434 4.26053 6.86679 4.58031C6.99924 4.90008 7.0339 5.25194 6.96637 5.59141C6.89885 5.93088 6.73218 6.2427 6.48744 6.48744C6.2427 6.73218 5.93087 6.89885 5.59141 6.96638C5.25194 7.0339 4.90007 6.99924 4.5803 6.86679C4.26053 6.73434 3.98722 6.51004 3.79493 6.22225C3.60264 5.93446 3.5 5.59612 3.5 5.25C3.5 4.78587 3.68437 4.34075 4.01256 4.01256C4.34075 3.68438 4.78587 3.5 5.25 3.5Z" fill="#01B574"/>
<path d="M15.75 12.25C15.0578 12.25 14.3811 12.4553 13.8055 12.8399C13.2299 13.2244 12.7813 13.7711 12.5164 14.4106C12.2515 15.0502 12.1822 15.7539 12.3173 16.4328C12.4523 17.1117 12.7856 17.7354 13.2751 18.2249C13.7646 18.7144 14.3883 19.0477 15.0672 19.1827C15.7461 19.3178 16.4499 19.2485 17.0894 18.9836C17.7289 18.7187 18.2756 18.2701 18.6601 17.6945C19.0447 17.1189 19.25 16.4422 19.25 15.75C19.25 14.8217 18.8813 13.9315 18.2249 13.2751C17.5685 12.6187 16.6783 12.25 15.75 12.25ZM15.75 17.5C15.4039 17.5 15.0655 17.3974 14.7778 17.2051C14.49 17.0128 14.2657 16.7395 14.1332 16.4197C14.0008 16.0999 13.9661 15.7481 14.0336 15.4086C14.1012 15.0691 14.2678 14.7573 14.5126 14.5126C14.7573 14.2678 15.0691 14.1011 15.4086 14.0336C15.7481 13.9661 16.0999 14.0008 16.4197 14.1332C16.7395 14.2657 17.0128 14.49 17.2051 14.7778C17.3974 15.0655 17.5 15.4039 17.5 15.75C17.5 16.2141 17.3156 16.6592 16.9874 16.9874C16.6593 17.3156 16.2141 17.5 15.75 17.5Z" fill="#01B574"/>
</g>
<defs>
<clipPath id="clip0_152_203">
<rect width="21" height="21" fill="white"/>
</clipPath>
</defs>
</svg>
