<svg width="19" height="19" viewBox="0 0 19 19" fill="none" xmlns="http://www.w3.org/2000/svg">
<g clip-path="url(#clip0_152_207)">
<path d="M17.4167 19H10.2917V17.4167H16.2973L0 1.11942L1.11942 0L17.4167 16.2972V10.2917H19V17.4167C19 17.8366 18.8332 18.2393 18.5363 18.5363C18.2393 18.8332 17.8366 19 17.4167 19Z" fill="#F54F47"/>
<path d="M4.74967 11.0837C5.37598 11.0837 5.98822 11.2694 6.50898 11.6173C7.02974 11.9653 7.43562 12.4599 7.67529 13.0385C7.91497 13.6171 7.97768 14.2538 7.8555 14.8681C7.73331 15.4824 7.43171 16.0466 6.98885 16.4895C6.54598 16.9324 5.98173 17.234 5.36746 17.3561C4.75319 17.4783 4.11648 17.4156 3.53784 17.1759C2.95921 16.9363 2.46465 16.5304 2.11669 16.0096C1.76873 15.4889 1.58301 14.8766 1.58301 14.2503C1.58301 13.4105 1.91664 12.605 2.5105 12.0112C3.10437 11.4173 3.90982 11.0837 4.74967 11.0837ZM4.74967 15.8337C5.06283 15.8337 5.36895 15.7408 5.62933 15.5668C5.88971 15.3928 6.09265 15.1456 6.21248 14.8562C6.33232 14.5669 6.36368 14.2486 6.30259 13.9414C6.24149 13.6343 6.09069 13.3522 5.86926 13.1307C5.64783 12.9093 5.3657 12.7585 5.05857 12.6974C4.75143 12.6363 4.43308 12.6677 4.14376 12.7875C3.85444 12.9074 3.60716 13.1103 3.43318 13.3707C3.2592 13.631 3.16634 13.9372 3.16634 14.2503C3.16634 14.6702 3.33316 15.073 3.63009 15.3699C3.92702 15.6668 4.32975 15.8337 4.74967 15.8337Z" fill="#F54F47"/>
<path d="M14.2497 7.91699C13.6234 7.91699 13.0111 7.73127 12.4904 7.38331C11.9696 7.03535 11.5637 6.54079 11.3241 5.96216C11.0844 5.38352 11.0217 4.74681 11.1439 4.13254C11.266 3.51827 11.5676 2.95402 12.0105 2.51115C12.4534 2.06829 13.0176 1.76669 13.6319 1.6445C14.2462 1.52232 14.8829 1.58503 15.4615 1.82471C16.0401 2.06438 16.5347 2.47026 16.8827 2.99102C17.2306 3.51178 17.4163 4.12402 17.4163 4.75033C17.4163 5.59018 17.0827 6.39563 16.4888 6.9895C15.895 7.58336 15.0895 7.91699 14.2497 7.91699ZM14.2497 3.16699C13.9365 3.16699 13.6304 3.25985 13.37 3.43383C13.1096 3.60781 12.9067 3.85509 12.7869 4.14441C12.667 4.43373 12.6357 4.75208 12.6968 5.05922C12.7579 5.36635 12.9087 5.64848 13.1301 5.86991C13.3515 6.09134 13.6336 6.24214 13.9408 6.30324C14.2479 6.36433 14.5663 6.33297 14.8556 6.21313C15.1449 6.0933 15.3922 5.89036 15.5662 5.62998C15.7401 5.3696 15.833 5.06348 15.833 4.75033C15.833 4.3304 15.6662 3.92767 15.3693 3.63074C15.0723 3.33381 14.6696 3.16699 14.2497 3.16699Z" fill="#F54F47"/>
</g>
<defs>
<clipPath id="clip0_152_207">
<rect width="19" height="19" fill="white"/>
</clipPath>
</defs>
</svg>
