<svg width="12" height="12" viewBox="0 0 12 12" fill="none" xmlns="http://www.w3.org/2000/svg">
<path d="M8.58191 6.75861C8.67272 6.51594 8.71879 6.25882 8.71788 5.99972C8.71788 5.42443 8.48934 4.87269 8.08255 4.4659C7.67575 4.0591 7.12402 3.83057 6.54872 3.83057C6.29281 3.83087 6.03902 3.87691 5.79932 3.96653L6.3084 4.49143C6.38579 4.47905 6.46402 4.47271 6.5424 4.47246C6.94917 4.47161 7.33976 4.63174 7.62887 4.91789C7.91798 5.20404 8.08213 5.59296 8.08547 5.99972C8.08521 6.07809 8.07887 6.15633 8.0665 6.23371L8.58191 6.75861Z" fill="#C7D2D6"/>
<path d="M11.4593 5.851C10.3937 3.88105 8.52493 2.68896 6.45696 2.68896C5.89391 2.69029 5.33464 2.78101 4.80005 2.95774L5.30914 3.46999C5.68411 3.37308 6.06967 3.32316 6.45696 3.32137C8.23718 3.32137 9.85615 4.31425 10.8206 5.98697C10.4668 6.60755 9.99779 7.1549 9.43876 7.59961L9.88777 8.04862C10.5347 7.52667 11.0721 6.88189 11.4688 6.1514L11.551 5.99962L11.4593 5.851Z" fill="#C7D2D6"/>
<path d="M2.15661 2.13569L3.56688 3.54596C2.67547 4.11991 1.94694 4.91379 1.45148 5.85109L1.36926 5.9997L1.45148 6.15148C2.51708 8.12143 4.38584 9.31352 6.45382 9.31352C7.26098 9.31335 8.05765 9.13067 8.78424 8.77913L10.3653 10.3602L10.9186 9.88585L2.69732 1.66455L2.15661 2.13569ZM5.2396 5.21868L7.34235 7.32143C7.10476 7.4685 6.83125 7.54727 6.55184 7.5491C6.34882 7.5491 6.14779 7.50896 5.96034 7.43098C5.77289 7.353 5.60271 7.23872 5.45959 7.09472C5.31647 6.95072 5.20324 6.77984 5.12641 6.59192C5.04959 6.40399 5.01068 6.20272 5.01193 5.9997C5.01549 5.72352 5.0942 5.45352 5.2396 5.21868ZM4.7811 4.76018C4.48527 5.17738 4.34661 5.68581 4.38968 6.19543C4.43274 6.70505 4.65475 7.183 5.01639 7.54464C5.37803 7.90628 5.85598 8.12829 6.3656 8.17135C6.87522 8.21442 7.38365 8.07576 7.80085 7.77993L8.30677 8.28585C7.72109 8.5362 7.09076 8.66528 6.45382 8.6653C4.67359 8.6653 3.05463 7.67242 2.09021 5.9997C2.55304 5.18017 3.2196 4.494 4.02537 4.00762L4.7811 4.76018Z" fill="#C7D2D6"/>
</svg>
