<svg width="28" height="28" viewBox="0 0 28 28" fill="none" xmlns="http://www.w3.org/2000/svg">
<mask id="mask0_531_834" style="mask-type:luminance" maskUnits="userSpaceOnUse" x="0" y="0" width="28" height="28">
<path d="M27.233 0H0V27.233H27.233V0Z" fill="white"/>
</mask>
<g mask="url(#mask0_531_834)">
<path d="M10.007 23.5774L12.7942 17.6373L10.8751 16.9062H19.968L21.613 12.8853H8.77326L4.93506 22.3894L10.007 23.5774Z" fill="white"/>
<path fill-rule="evenodd" clip-rule="evenodd" d="M13.6165 27.233C21.1366 27.233 27.233 21.1366 27.233 13.6165C27.233 10.9556 26.4697 8.47304 25.1503 6.37568L24.4 7.99625L23.7463 9.40826C24.2852 10.7041 24.5828 12.1255 24.5828 13.6165C24.5828 19.673 19.673 24.5828 13.6165 24.5828C7.55996 24.5828 2.65019 19.673 2.65019 13.6165C2.65019 7.55996 7.55996 2.65019 13.6165 2.65019C16.1129 2.65019 18.4145 3.48435 20.2577 4.88914H24.0688C21.5711 1.9009 17.8157 0 13.6165 0C6.09631 0 0 6.09631 0 13.6165C0 21.1366 6.09631 27.233 13.6165 27.233ZM23.4797 8.81742C22.821 7.46627 21.8929 6.27061 20.7653 5.30037H24.3993C24.5421 5.48522 24.6802 5.67385 24.8135 5.86606L23.4797 8.81742Z" fill="white"/>
<path d="M22.9821 9.78453C22.9821 9.78453 3.78628 10.0559 3.33486 9.92654C2.10201 8.4079 5.97879 5.39918 6.36571 5.33452C6.75263 5.26986 25.0398 5.31803 25.0398 5.31803L22.9821 9.78453Z" fill="white"/>
</g>
</svg>
