<svg width="18" height="18" viewBox="0 0 18 18" fill="none" xmlns="http://www.w3.org/2000/svg">
<path d="M16.9087 7.32771H16.221V7.29228H8.53735V10.7072H13.3622C12.6583 12.6951 10.7669 14.1222 8.53735 14.1222C5.7085 14.1222 3.41494 11.8286 3.41494 8.99975C3.41494 6.1709 5.7085 3.87734 8.53735 3.87734C9.84314 3.87734 11.0311 4.36995 11.9356 5.17459L14.3504 2.7598C12.8257 1.33876 10.7861 0.462402 8.53735 0.462402C3.8226 0.462402 0 4.285 0 8.99975C0 13.7145 3.8226 17.5371 8.53735 17.5371C13.2521 17.5371 17.0747 13.7145 17.0747 8.99975C17.0747 8.42733 17.0158 7.86856 16.9087 7.32771Z" fill="#FFC107"/>
<path d="M0.983765 5.02604L3.78871 7.08312C4.54768 5.20405 6.38578 3.87734 8.53676 3.87734C9.84255 3.87734 11.0305 4.36995 11.9351 5.17459L14.3498 2.7598C12.8251 1.33876 10.7855 0.462402 8.53676 0.462402C5.25756 0.462402 2.41377 2.31373 0.983765 5.02604Z" fill="#FF3D00"/>
<path d="M8.53751 17.5373C10.7427 17.5373 12.7464 16.6934 14.2614 15.321L11.6191 13.0851C10.7331 13.7588 9.65055 14.1232 8.53751 14.1224C6.31695 14.1224 4.43147 12.7064 3.72116 10.7305L0.937134 12.8755C2.35007 15.6403 5.21947 17.5373 8.53751 17.5373Z" fill="#4CAF50"/>
<path d="M16.9087 7.32791H16.221V7.29248H8.53735V10.7074H13.3622C13.0255 11.6535 12.419 12.4803 11.6176 13.0855L11.6189 13.0846L14.2612 15.3206C14.0743 15.4905 17.0747 13.2686 17.0747 8.99995C17.0747 8.42752 17.0158 7.86875 16.9087 7.32791Z" fill="#1976D2"/>
</svg>
