<svg width="122" height="28" viewBox="0 0 122 28" fill="none" xmlns="http://www.w3.org/2000/svg">
<g clip-path="url(#clip0_531_541)">
<mask id="mask0_531_541" style="mask-type:luminance" maskUnits="userSpaceOnUse" x="0" y="0" width="28" height="28">
<path d="M27.233 0H0V27.233H27.233V0Z" fill="white"/>
</mask>
<g mask="url(#mask0_531_541)">
<path d="M10.007 23.5774L12.7942 17.6373L10.8751 16.9062H19.968L21.613 12.8853H8.77326L4.93506 22.3894L10.007 23.5774Z" fill="white"/>
<path fill-rule="evenodd" clip-rule="evenodd" d="M13.6165 27.233C21.1366 27.233 27.233 21.1366 27.233 13.6165C27.233 10.9556 26.4697 8.47304 25.1503 6.37568L24.4 7.99625L23.7463 9.40826C24.2852 10.7041 24.5828 12.1255 24.5828 13.6165C24.5828 19.673 19.673 24.5828 13.6165 24.5828C7.55996 24.5828 2.65019 19.673 2.65019 13.6165C2.65019 7.55996 7.55996 2.65019 13.6165 2.65019C16.1129 2.65019 18.4145 3.48435 20.2577 4.88914H24.0688C21.5711 1.9009 17.8157 0 13.6165 0C6.09631 0 0 6.09631 0 13.6165C0 21.1366 6.09631 27.233 13.6165 27.233ZM23.4797 8.81742C22.821 7.46627 21.8929 6.27061 20.7653 5.30037H24.3993C24.5421 5.48522 24.6802 5.67385 24.8135 5.86606L23.4797 8.81742Z" fill="white"/>
<path d="M22.9821 9.78453C22.9821 9.78453 3.78628 10.0559 3.33486 9.92654C2.10201 8.4079 5.97879 5.39918 6.36571 5.33452C6.75263 5.26986 25.0398 5.31803 25.0398 5.31803L22.9821 9.78453Z" fill="white"/>
</g>
<path d="M31.7661 20.4708V7.67676H32.68V20.4708H31.7661ZM32.3327 14.5124V13.5986H38.6749V14.5124H32.3327ZM32.3144 8.59062V7.67676H39.5705V8.59062H32.3144ZM45.3335 20.6535C44.4684 20.6535 43.6946 20.4403 43.0123 20.0138C42.3299 19.5873 41.7878 19.0025 41.3857 18.2592C40.9957 17.516 40.8008 16.6691 40.8008 15.7187C40.8008 14.7561 41.0018 13.9031 41.4039 13.1599C41.8182 12.4167 42.3665 11.8318 43.0489 11.4053C43.7312 10.9788 44.4928 10.7656 45.3335 10.7656C45.8209 10.7656 46.2839 10.8387 46.7226 10.9849C47.1612 11.1311 47.5572 11.3383 47.9106 11.6063C48.2639 11.8622 48.5686 12.1668 48.8245 12.5202C49.0803 12.8736 49.2631 13.2574 49.3728 13.6717L49.0072 13.4341L49.0986 10.9666H49.9759V20.4708H49.0621V18.0947L49.3728 17.7475C49.2631 18.1496 49.0803 18.5273 48.8245 18.8807C48.5686 19.234 48.2639 19.5448 47.9106 19.8128C47.5572 20.0808 47.1612 20.288 46.7226 20.4342C46.2839 20.5804 45.8209 20.6535 45.3335 20.6535ZM45.4615 19.7397C46.156 19.7397 46.7774 19.5691 47.3257 19.2279C47.8862 18.8745 48.3248 18.3993 48.6417 17.8023C48.9707 17.193 49.1352 16.4925 49.1352 15.7004C49.1352 14.9206 48.9767 14.2321 48.66 13.6351C48.3431 13.0258 47.9045 12.5506 47.344 12.2095C46.7957 11.8561 46.1681 11.6795 45.4615 11.6795C44.7425 11.6795 44.1028 11.8561 43.5424 12.2095C42.994 12.5506 42.5614 13.0258 42.2447 13.6351C41.9278 14.2321 41.7695 14.9206 41.7695 15.7004C41.7695 16.4681 41.9217 17.1565 42.2264 17.7657C42.5431 18.375 42.9758 18.8563 43.5241 19.2096C44.0845 19.563 44.7304 19.7397 45.4615 19.7397ZM56.6365 20.6535C55.7226 20.6535 54.9063 20.4403 54.1873 20.0138C53.4806 19.5873 52.9201 19.0025 52.5058 18.2592C52.1037 17.516 51.9027 16.663 51.9027 15.7004C51.9027 14.7379 52.1037 13.8849 52.5058 13.1416C52.9201 12.3984 53.4867 11.8195 54.2056 11.4053C54.9245 10.9788 55.753 10.7656 56.6913 10.7656C57.4711 10.7656 58.1779 10.9179 58.8115 11.2225C59.4573 11.5271 59.9933 11.9536 60.4198 12.5019L59.835 13.2147C59.5669 12.8857 59.2623 12.6116 58.9211 12.3923C58.58 12.1608 58.2144 11.984 57.8245 11.8622C57.4345 11.7404 57.0324 11.6795 56.6182 11.6795C55.8993 11.6795 55.2596 11.8561 54.6991 12.2095C54.1386 12.5506 53.6939 13.0258 53.3649 13.6351C53.0359 14.2321 52.8714 14.9206 52.8714 15.7004C52.8714 16.4802 53.0298 17.1748 53.3466 17.784C53.6756 18.3933 54.1203 18.8745 54.6808 19.2279C55.2413 19.5691 55.8688 19.7397 56.5634 19.7397C56.9655 19.7397 57.3614 19.6787 57.7514 19.5569C58.1413 19.4351 58.5069 19.2645 58.848 19.0451C59.1892 18.8137 59.4999 18.5334 59.7801 18.2044L60.365 18.9172C59.9264 19.4655 59.3719 19.892 58.7018 20.1966C58.0438 20.5012 57.3554 20.6535 56.6365 20.6535ZM66.0781 20.6535C65.1642 20.6535 64.3478 20.4464 63.6289 20.0321C62.9222 19.6179 62.3678 19.039 61.9657 18.2958C61.5636 17.5525 61.3626 16.6874 61.3626 15.7004C61.3626 14.9815 61.4722 14.3235 61.6916 13.7265C61.923 13.1295 62.2399 12.6116 62.642 12.1729C63.0441 11.7221 63.5253 11.3749 64.0859 11.1311C64.6585 10.8874 65.2799 10.7656 65.9501 10.7656C66.6081 10.7656 67.199 10.8753 67.723 11.0946C68.2591 11.3139 68.71 11.6307 69.0755 12.045C69.4411 12.4471 69.7152 12.9284 69.898 13.4889C70.0808 14.0372 70.1599 14.6465 70.1356 15.3166L70.1173 15.8101H62.0388V14.9693H69.6238L69.2218 15.2983V14.8597C69.2218 14.3723 69.0998 13.8849 68.8562 13.3975C68.6246 12.9101 68.2652 12.5019 67.7779 12.1729C67.2904 11.8439 66.6751 11.6795 65.9319 11.6795C65.2373 11.6795 64.6159 11.8318 64.0676 12.1364C63.5314 12.441 63.1049 12.8857 62.7882 13.4706C62.4835 14.0555 62.3313 14.7804 62.3313 15.6456C62.3313 16.4742 62.4835 17.1992 62.7882 17.8206C63.0928 18.4298 63.5314 18.9051 64.1042 19.2462C64.689 19.5752 65.4018 19.7397 66.2426 19.7397C66.6934 19.7397 67.1564 19.6666 67.6316 19.5204C68.1068 19.3741 68.6429 19.0573 69.24 18.5699L69.7152 19.2462C69.4471 19.5021 69.1304 19.7397 68.7648 19.959C68.3993 20.1662 67.9911 20.3367 67.5403 20.4708C67.0894 20.5926 66.602 20.6535 66.0781 20.6535ZM72.3661 20.4708V7.67676H74.7421V20.4708H72.3661ZM73.4627 15.2252V13.0685H80.0607V15.2252H73.4627ZM73.4627 9.87002V7.67676H80.8467V9.87002H73.4627ZM87.2208 20.6535C86.2582 20.6535 85.3992 20.4403 84.6437 20.0138C83.8883 19.5752 83.2912 18.9782 82.8526 18.2227C82.4139 17.4672 82.1946 16.6082 82.1946 15.6456C82.1946 14.683 82.4139 13.824 82.8526 13.0685C83.2912 12.313 83.8883 11.7221 84.6437 11.2956C85.3992 10.857 86.2582 10.6377 87.2208 10.6377C88.1712 10.6377 89.0242 10.857 89.7796 11.2956C90.5351 11.7221 91.1261 12.313 91.5525 13.0685C91.9912 13.824 92.2105 14.683 92.2105 15.6456C92.2105 16.6082 91.9912 17.4672 91.5525 18.2227C91.1261 18.9782 90.5351 19.5752 89.7796 20.0138C89.0242 20.4403 88.1712 20.6535 87.2208 20.6535ZM87.2208 18.6613C87.7448 18.6613 88.2078 18.5273 88.6099 18.2592C89.0242 17.9912 89.3471 17.6317 89.5786 17.1809C89.8223 16.7301 89.9381 16.2183 89.9258 15.6456C89.9381 15.0607 89.8223 14.5428 89.5786 14.092C89.3471 13.6412 89.0242 13.2878 88.6099 13.032C88.2078 12.7639 87.7448 12.6299 87.2208 12.6299C86.6969 12.6299 86.2217 12.7639 85.7952 13.032C85.3809 13.2878 85.0581 13.6473 84.8265 14.1103C84.595 14.5611 84.4792 15.0729 84.4792 15.6456C84.4792 16.2183 84.595 16.7301 84.8265 17.1809C85.0581 17.6317 85.3809 17.9912 85.7952 18.2592C86.2217 18.5273 86.6969 18.6613 87.2208 18.6613ZM94.2219 20.4708V10.8387H96.4334L96.47 13.9093L96.1593 13.2147C96.2927 12.7274 96.5248 12.2887 96.8538 11.8988C97.1828 11.5088 97.5602 11.2042 97.987 10.9849C98.4256 10.7534 98.8826 10.6377 99.3578 10.6377C99.5643 10.6377 99.7599 10.6559 99.9426 10.6925C100.137 10.729 100.295 10.7717 100.418 10.8204L99.8147 13.2878C99.6804 13.2147 99.5159 13.1538 99.3212 13.1051C99.1256 13.0564 98.931 13.032 98.7363 13.032C98.4311 13.032 98.1387 13.0929 97.859 13.2147C97.5904 13.3244 97.3528 13.4828 97.1462 13.6899C96.9388 13.8971 96.7743 14.1407 96.6527 14.421C96.5431 14.6891 96.4883 14.9937 96.4883 15.3349V20.4708H94.2219ZM106.018 20.6535C105.007 20.6535 104.112 20.4403 103.331 20.0138C102.564 19.5873 101.96 19.0086 101.522 18.2775C101.096 17.5343 100.882 16.6874 100.882 15.737C100.882 14.9815 101.005 14.2931 101.248 13.6717C101.492 13.0502 101.827 12.5141 102.253 12.0633C102.692 11.6002 103.21 11.2469 103.806 11.0032C104.416 10.7473 105.08 10.6194 105.799 10.6194C106.433 10.6194 107.023 10.7412 107.572 10.9849C108.12 11.2286 108.595 11.5637 108.997 11.9902C109.399 12.4044 109.704 12.904 109.911 13.4889C110.13 14.0616 110.234 14.6891 110.222 15.3714L110.203 16.1574H102.399L101.979 14.6221H108.321L108.028 14.9328V14.5307C107.992 14.153 107.87 13.824 107.663 13.5437C107.456 13.2513 107.188 13.0258 106.859 12.8675C106.543 12.6969 106.189 12.6116 105.799 12.6116C105.202 12.6116 104.697 12.7274 104.282 12.9589C103.88 13.1903 103.575 13.5254 103.368 13.9641C103.161 14.3906 103.057 14.9267 103.057 15.5725C103.057 16.1939 103.185 16.7361 103.441 17.1992C103.71 17.6622 104.081 18.0216 104.556 18.2775C105.044 18.5212 105.61 18.6431 106.256 18.6431C106.707 18.6431 107.121 18.5699 107.498 18.4237C107.877 18.2775 108.284 18.0155 108.723 17.6378L109.838 19.1914C109.509 19.496 109.131 19.758 108.705 19.9773C108.291 20.1845 107.852 20.3489 107.389 20.4708C106.926 20.5926 106.469 20.6535 106.018 20.6535ZM118.392 20.4708L115.65 16.7605L115.138 16.066L111.172 10.8387H113.95L116.619 14.4576L117.185 15.2252L121.115 20.4708H118.392ZM111.154 20.4708L114.974 15.3532L116.253 16.8884L113.804 20.4708H111.154ZM117.185 15.9746L115.961 14.4576L118.172 10.8387H120.822L117.185 15.9746Z" fill="white"/>
</g>
<defs>
<clipPath id="clip0_531_541">
<rect width="122" height="27.233" fill="white"/>
</clipPath>
</defs>
</svg>
