<svg width="250" height="48" viewBox="0 0 250 48" fill="none" xmlns="http://www.w3.org/2000/svg">
<path fill-rule="evenodd" clip-rule="evenodd" d="M4 47.6547C9.58119 47.6547 13.4086 27.1635 28.1905 27.1635C42.9725 27.1635 46.4004 15.2908 56.1997 15.2908C65.9989 15.2908 64.5712 25.0009 83.1253 25.0009C93.9298 25.0009 93.9298 15.2908 102.67 15.2908C112.766 15.2908 111.389 24.3183 130.195 24.3183C151.904 24.3183 146.54 0.818359 159.391 0.818359C174.586 0.818359 176.389 47.6547 199 47.6547" fill="url(#paint0_linear_187_422)"/>
<path d="M1 45.5449C1 45.5449 2.2926 47.6547 3.84582 47.6547C9.42743 47.6547 13.2551 27.1635 28.0382 27.1635C42.8213 27.1635 46.2495 15.2908 56.0494 15.2908C65.8494 15.2908 64.4216 25.0009 82.9771 25.0009C93.7824 25.0009 93.7824 15.2908 102.523 15.2908C112.62 15.2908 111.243 24.3183 130.05 24.3183C151.761 24.3183 146.397 0.818359 159.249 0.818359C174.444 0.818359 176.248 47.6547 198.861 47.6547C216.432 47.6547 221.083 10.9512 231.697 10.9512C238.854 10.9512 242.992 23.8446 249 33.1806" stroke="#B134A4" stroke-width="0.7"/>
<path fill-rule="evenodd" clip-rule="evenodd" d="M199 47.6545C216.523 47.6545 221.161 11 231.745 11C238.882 11 243.008 23.8763 249 33.1998" fill="url(#paint1_linear_187_422)"/>
<defs>
<linearGradient id="paint0_linear_187_422" x1="-13.0524" y1="-4.0741" x2="-12.7353" y2="48.3459" gradientUnits="userSpaceOnUse">
<stop stop-color="#FE45E8"/>
<stop offset="1" stop-opacity="0.01"/>
</linearGradient>
<linearGradient id="paint1_linear_187_422" x1="194.628" y1="7.17112" x2="195.385" y2="48.1829" gradientUnits="userSpaceOnUse">
<stop stop-color="#FE45E8"/>
<stop offset="1" stop-opacity="0.01"/>
</linearGradient>
</defs>
</svg>
