<svg width="39" height="13" viewBox="0 0 39 13" fill="none" xmlns="http://www.w3.org/2000/svg">
<path d="M16.8057 12.0085H13.7342L15.6539 0.210809H18.7257L16.8057 12.0085ZM11.1502 0.210809L8.2219 8.32537L7.87539 6.57799L7.87571 6.57862L6.84218 1.27306C6.84218 1.27306 6.71721 0.210809 5.38514 0.210809H0.54411L0.487305 0.410572C0.487305 0.410572 1.9677 0.718579 3.70024 1.75905L6.36881 12.0088H9.56912L14.4559 0.210809H11.1502ZM35.3096 12.0085H38.1299L35.6709 0.210493H33.2018C32.0616 0.210493 31.7839 1.0897 31.7839 1.0897L27.2029 12.0085H30.4048L31.0451 10.2561H34.9498L35.3096 12.0085ZM31.9297 7.83527L33.5436 3.42028L34.4515 7.83527H31.9297ZM27.4431 3.04789L27.8814 0.514398C27.8814 0.514398 26.5288 0 25.1188 0C23.5945 0 19.9748 0.666193 19.9748 3.90564C19.9748 6.95353 24.2232 6.9914 24.2232 8.59235C24.2232 10.1933 20.4125 9.90643 19.1549 8.89689L18.6983 11.5459C18.6983 11.5459 20.0698 12.2121 22.1653 12.2121C24.2614 12.2121 27.4235 11.1268 27.4235 8.17294C27.4235 5.10548 23.1369 4.81988 23.1369 3.48623C23.1373 2.15227 26.1287 2.32363 27.4431 3.04789Z" fill="#2566AF"/>
<path d="M7.87571 6.57875L6.84218 1.27319C6.84218 1.27319 6.71721 0.210938 5.38514 0.210938H0.54411L0.487305 0.410701C0.487305 0.410701 2.81409 0.892909 5.04589 2.69962C7.17985 4.42648 7.87571 6.57875 7.87571 6.57875Z" fill="#E6A540"/>
</svg>
